<?xml version="1.0" encoding="UTF-8" standalone="no"?>
<svg
   xmlns:dc="http://purl.org/dc/elements/1.1/"
   xmlns:cc="http://creativecommons.org/ns#"
   xmlns:rdf="http://www.w3.org/1999/02/22-rdf-syntax-ns#"
   xmlns:svg="http://www.w3.org/2000/svg"
   xmlns="http://www.w3.org/2000/svg"
   version="1.1"
   id="svg3400"
   viewBox="0 0 100 99.999995"
   height="150"
   width="150">
  <defs
     id="defs3402" />
  <metadata
     id="metadata3405">
    <rdf:RDF>
      <cc:Work
         rdf:about="">
        <dc:format>image/svg+xml</dc:format>
        <dc:type
           rdf:resource="http://purl.org/dc/dcmitype/StillImage" />
        <dc:title></dc:title>
      </cc:Work>
    </rdf:RDF>
  </metadata>
  <g
     transform="translate(-120.57143,-421.64795)"
     id="layer1">
    <g
       transform="matrix(0.66666667,0,0,0.66666666,43.571429,175.78743)"
       id="uml-logo">
      <path
         id="l"
         d="m 192.67784,478.94949 0,-39.84131 9.9767,-5.48186 c 5.48719,-3.01503 10.21978,-5.48187 10.51687,-5.48187 0.29709,0 0.54016,13.0658 0.54016,29.03511 0,15.96933 0.19825,29.21832 0.44055,29.44222 0.2423,0.2239 9.53219,-4.56106 20.64421,-10.63326 L 255,464.94814 l 0,9.88653 0,9.88651 -21.22849,11.60781 c -11.67566,6.38429 -25.69815,14.04995 -31.16108,17.0348 l -9.93259,5.42699 z"
         style="display:inline;fill:#280068" />
      <path
         id="u"
         d="m 177.48682,429.10296 c -4.74013,-1.33965 -49.82163,-25.42593 -48.93208,-26.14357 0.34782,-0.2806 5.31955,-3.00034 11.04828,-6.04387 l 10.41588,-5.53368 19.96617,10.71498 c 10.9814,5.89324 21.3315,11.12793 23.00023,11.63266 4.2668,1.29054 11.87665,0.57553 16.93955,-1.59161 8.39249,-3.59235 10.57309,-7.53427 6.21773,-11.23996 -1.23373,-1.0497 -11.0453,-6.60576 -21.80347,-12.34679 -10.75817,-5.74103 -19.5645,-10.61182 -19.5696,-10.82397 -0.005,-0.21215 3.90526,-2.4262 8.68971,-4.92012 7.05383,-3.67685 9.00596,-4.40505 10.3221,-3.85047 4.3933,1.8512 42.3706,22.11231 43.95935,23.45256 4.2212,3.56096 5.2153,9.14426 2.50287,14.05737 -4.44749,8.0559 -24.59647,19.3834 -40.31873,22.66669 -6.92969,1.44713 -17.25988,1.43322 -22.43799,-0.0302 z"
         style="display:inline;fill:#981039" />
      <g
         style="display:inline"
         transform="matrix(0.77902702,0,0,0.71987884,29.79667,367.65303)"
         id="g3469">
        <path
           id="m"
           d="m 193.33283,203.8626 -10.25,-5.98921 0,-29.12169 c 0,-16.01693 -0.37758,-28.69419 -0.83907,-28.17169 -0.46149,0.5225 -3.45831,11.3 -6.65959,23.95 -3.20128,12.65 -5.99661,23.33161 -6.21186,23.73692 -0.21524,0.40531 -3.4324,-0.79453 -7.14925,-2.6663 l -6.7579,-3.40323 -6.35146,-29.83369 c -3.4933,-16.40854 -6.7008,-30.7337 -7.12778,-31.8337 -0.42697,-1.1 -0.80484,10.46404 -0.8397,25.69787 l -0.0634,27.69787 -9.25,-5.22384 -9.25,-5.22383 -0.25845,-55.84458 -0.25845,-55.844582 2.25845,1.447756 c 1.24215,0.796266 8.429,4.942637 15.97077,9.214158 7.54178,4.271521 13.93563,8.511776 14.20857,9.422791 0.27293,0.911014 2.57509,12.9041 5.11592,26.651299 2.54083,13.747208 4.7799,25.155128 4.97571,25.350948 0.43176,0.43175 1.18861,-2.42637 6.52442,-24.638298 l 4.15403,-17.292439 3.65451,2.159347 c 2.00999,1.187641 8.71702,5.130558 14.90452,8.762037 l 11.25,6.602695 0,55.280398 c 0,30.40422 -0.3375,55.2403 -0.75,55.1913 -0.4125,-0.049 -5.3625,-2.78425 -11,-6.07831 z m -8.2283,-189.832588 c -153.407022,136.024808 -76.70351,68.012405 0,0 z"
           style="fill:#feb903" />
      </g>
    </g>
  </g>
</svg>
